<svg width="1400" height="685" viewBox="0 0 1400 685" fill="none" xmlns="http://www.w3.org/2000/svg">
<path fill-rule="evenodd" clip-rule="evenodd" d="M944.589 1.875C942.624 2.85102 939.731 6.21782 938.159 9.35597C935.562 14.5405 935.339 17.4086 935.729 40.7832C936.201 69.0709 938.237 82.2637 943.93 93.8989C951.483 109.335 966.552 122.128 983.533 127.517C991.583 130.07 994.86 130.255 1016.84 129.39C1038.04 128.556 1041.46 128.724 1043.08 130.678C1044.63 132.544 1044.32 136.048 1041.24 151.389C1039.2 161.545 1036.22 173.356 1034.62 177.634C1027.63 196.313 1013.29 210.841 991.276 221.528C949.807 241.665 916.183 239.653 884.69 215.149C865.795 200.447 852.035 184.029 818.203 135.814C792.303 98.9062 788.596 94.1489 776.181 81.9021C749.797 55.8766 718.219 40.5631 679.504 35.0214C663.669 32.7549 627.092 32.4191 601.622 34.3068C580.038 35.9059 552.253 34.0025 508.765 27.9448C461.635 21.3798 437.322 19.6721 416.721 21.477C357.16 26.6987 317.658 49.2188 297.628 89.3703C287.514 109.645 283.844 127.593 283.896 156.535C283.928 174.956 284.669 181.97 289.157 206.425C295.391 240.385 295.999 258.45 291.522 276.573C287.181 294.145 288.02 305.318 294.347 314.264C296.337 317.075 296.528 319.04 295.465 325.696C293.076 340.637 296.562 350.599 308.455 362.808C316.373 370.936 332.008 381.507 343.888 386.76C379.806 402.645 431.076 407.238 518.738 402.424C555.76 400.39 587.393 400.096 728.806 400.465C894.806 400.898 895.365 400.889 921.725 397.636C968.39 391.877 990.964 387.077 1014.1 377.994C1048.2 364.607 1065.93 348.569 1080.4 318.015C1094.45 288.341 1102.56 257.066 1108.94 207.98C1113.42 173.484 1117.02 151.772 1118.69 149.071C1119.41 147.899 1122 148.038 1128.24 149.582C1140.69 152.668 1162.05 152.661 1172.37 149.568C1208.72 138.679 1224.62 119.047 1254.55 48.067C1264.9 23.5034 1265.74 20.4095 1263.29 15.8309C1260.24 10.1276 1254.9 10.0633 1238.19 15.5308C1223.21 20.4338 1221.65 20.6553 1201.81 20.7096C1183.18 20.7625 1179.51 20.3381 1165.37 16.5068C1152.45 13.0043 1146.86 12.244 1133.94 12.2255C1115.58 12.1983 1107.49 14.4462 1095.89 22.7889L1088.34 28.2192L1079.51 20.7268C1055.07 -0.00417844 1035.71 -3.26809 1002.13 7.68258C982.874 13.9646 975.531 14.3347 968.737 9.36741C954.984 -0.685826 951.754 -1.68758 944.589 1.875ZM1048.16 25.1039C1057.18 28.3764 1062.83 32.119 1068.91 38.874C1070.09 40.1816 1074.19 43.6141 1078.02 46.5022C1087.17 53.3944 1092.11 52.6656 1102.86 42.8396C1111.09 35.3215 1120.57 31.4959 1130.98 31.4931C1137.71 31.4917 1167.1 36.8177 1170.6 38.6725C1178.43 42.8196 1217.93 43.8885 1222.52 40.0787C1223.51 39.2642 1226.8 38.4453 1229.85 38.261C1234.67 37.9695 1235.46 38.3553 1235.86 41.2191C1236.12 43.0311 1235.7 45.2818 1234.93 46.2207C1234.16 47.1596 1227.3 60.1809 1219.69 75.1571C1203.53 106.956 1196.57 115.947 1182.21 123.574C1162.42 134.079 1151.16 135.168 1128.22 128.793C1110.56 123.883 1110 123.843 1105.78 127.158C1099.59 132.025 1095.04 151.575 1089.62 196.548C1084.69 237.465 1082.64 248.187 1073.64 280.146C1072.42 284.469 1066.52 297.97 1060.52 310.15C1049.99 331.547 1049.27 332.584 1039.31 340.883C1033.63 345.605 1026.88 350.506 1024.3 351.772C1010.71 358.441 1003.33 361.442 998.178 362.392C995.034 362.972 989.89 364.347 986.746 365.449C977.28 368.764 939.302 375.552 921.01 377.197C873.261 381.494 843.961 381.947 714.515 380.391C587.99 378.869 564.912 379.145 493.016 383.038C424.612 386.742 379.259 381.85 350.113 367.625C337.474 361.458 324.707 351.553 319.33 343.745C314.402 336.591 314.348 336.35 315.45 326.538C316.722 315.211 316.532 315.303 330.106 319.441C367.304 330.781 389.604 333.756 435.854 333.549C470.505 333.394 502.876 331.538 518.514 328.809C522.959 328.033 535.255 326.378 545.835 325.13C556.416 323.883 565.825 322.241 566.741 321.479C567.658 320.719 572.827 319.949 578.227 319.77L588.046 319.444L588.22 324.446C588.505 332.62 588.651 333.02 591.333 333.02C601.975 333.02 597.791 308.616 585.668 299.985C581.796 297.227 581.154 297.143 579.166 299.132C577.177 301.12 577.276 301.78 580.158 305.828C581.917 308.299 583.126 310.517 582.843 310.757C582.562 310.997 573.327 312.565 562.324 314.241C477.183 327.212 413.417 328.386 357.258 318.014C338.327 314.517 317.366 307.167 311.171 301.854C307.999 299.133 307.93 291.521 310.977 280.573C314.55 267.74 315.754 256.25 314.914 242.991C314.204 231.762 309.141 200.948 305.522 185.83C300.411 164.474 304.548 112.309 311.939 104.917C312.499 104.357 312.958 102.915 312.958 101.713C312.958 98.3331 326.219 79.5585 334.335 71.4516C342.51 63.2833 358.758 53.1015 363.967 52.8814C364.6 52.8542 367.69 51.591 370.833 50.0719C373.977 48.5529 377.919 47.2896 379.591 47.2624C381.263 47.2353 384.894 46.2693 387.659 45.1132C391.129 43.6627 401.029 42.7224 419.629 42.0736C446.894 41.1219 470.164 42.7353 503.733 47.9026C530.972 52.0954 537.33 52.8328 560.487 54.4862C579.038 55.8095 590.754 55.8066 612.948 54.4705C650.862 52.1897 671.339 53.4058 695.223 59.3578C714.002 64.0364 727.287 69.331 735.371 75.3572C737.803 77.1692 740.322 78.6525 740.968 78.6525C741.613 78.6525 743.16 79.5857 744.405 80.7275C745.65 81.8679 750.848 86.4979 755.957 91.0165C761.066 95.5351 765.512 99.9008 765.836 100.718C766.162 101.536 768.238 104.014 770.45 106.227C777.048 112.825 784.125 122.028 785.132 125.322C785.651 127.017 787.016 128.766 788.165 129.206C789.314 129.647 790.254 130.766 790.254 131.692C790.254 132.618 792.505 136.122 795.256 139.479C798.006 142.837 800.257 146.143 800.257 146.826C800.257 147.509 802.161 150.296 804.486 153.016C806.812 155.737 808.741 158.515 808.773 159.19C808.806 159.864 812.047 164.457 815.977 169.396C819.906 174.335 823.122 179.019 823.122 179.805C823.122 180.591 830.077 189.181 838.578 198.894C854.693 217.306 874.067 234.844 883.855 239.884C910.128 253.412 916.193 255.138 937.444 255.138C952.382 255.138 955.506 254.643 971.741 249.712C992.753 243.33 1011.68 234.018 1024.62 223.695C1045.42 207.101 1053.61 191.409 1061.91 152.283C1065.75 134.179 1065.16 125.075 1059.69 117.902C1052.85 108.939 1049.11 108.148 1018.65 109.22C1003.52 109.753 991.619 109.61 991.174 108.892C990.744 108.195 987.32 106.787 983.568 105.764C972.431 102.726 962.142 89.2931 958.422 72.9364C955.386 59.585 954.92 24.5637 957.808 26.8302C961.498 29.7239 973.956 32.9235 981.54 32.9235C990.192 32.9235 995.018 31.6503 1008.9 25.7041C1021.54 20.2866 1034.34 20.0909 1048.16 25.1039ZM479.048 182.157C471.923 184.447 460.602 192.551 459.35 196.259C458.454 198.913 460.861 202.978 463.329 202.978C464.099 202.978 467.948 200.084 471.882 196.548C478.505 190.593 479.61 190.117 486.796 190.117C491.672 190.117 496.59 191.153 500.021 192.904C507.162 196.546 516.989 207.59 522.125 217.742C524.839 223.105 527.099 225.843 528.816 225.843C532.312 225.843 533.509 221.36 531.345 216.361C528.524 209.846 517.661 195.009 512.202 190.216C502.76 181.926 489.672 178.745 479.048 182.157ZM485.023 228.662C482.042 229.867 479.314 234.604 475.747 244.769C472.978 252.661 475.861 254.32 492.454 254.378L505.468 254.423L505.494 246.206C505.507 241.688 504.604 236.193 503.486 233.998C500.457 228.051 492.34 225.704 485.023 228.662ZM804.544 456.458C788.553 459.211 786.636 459.852 786.244 462.582C785.862 465.24 786.714 465.754 792.918 466.607C796.863 467.15 801.052 468.716 802.329 470.128C805.83 473.997 807.385 487.105 807.394 512.841L807.402 536.182L801.761 531.714C793.349 525.052 784.742 522.601 772.52 523.385C755.013 524.509 742.573 533.31 734.666 550.167C731.525 556.865 730.949 560.086 730.949 570.954C730.949 586.577 734.653 595.867 745.015 606.229C760.529 621.743 787.389 623.19 801.928 609.297C806.466 604.96 808.187 605.655 809.439 612.33C809.952 615.062 811.026 617.701 811.828 618.197C812.63 618.693 820.965 617.683 830.351 615.952C846.522 612.971 847.415 612.628 847.415 609.386C847.415 606.554 846.692 605.965 843.221 605.965C836.623 605.965 832.02 603.591 829.621 598.953C827.712 595.26 827.409 584.985 827.409 523.867C827.409 457.321 827.259 453.069 824.908 453.222C823.533 453.312 814.369 454.768 804.544 456.458ZM135.758 474.181C130.986 475.687 127.184 480.732 127.184 485.555C127.184 492.124 129.162 495.344 134.299 497.134C144.795 500.792 153.728 491.221 149.425 480.925C148.276 478.174 147.139 475.923 146.896 475.923C146.654 475.923 144.532 475.379 142.179 474.714C139.826 474.05 136.937 473.81 135.758 474.181ZM1037.58 478.26C1027.99 490.449 1045.42 505.733 1055.52 493.992C1062.72 485.628 1057.41 474.494 1046.22 474.494C1041.79 474.494 1039.89 475.32 1037.58 478.26ZM135.043 524.504C131.9 525.115 124.664 526.388 118.967 527.335C109.448 528.916 108.606 529.335 108.606 532.498C108.606 535.426 109.302 535.945 113.251 535.964C120.146 535.995 124.829 538.976 126.746 544.554C127.77 547.532 128.484 558.541 128.533 572.071C128.64 602.108 126.421 607.394 113.702 607.394C109.219 607.394 108.606 607.824 108.606 610.966V614.539H138.616H168.626V610.966C168.626 607.768 168.044 607.394 163.068 607.394C155.93 607.394 151.689 603.911 150.012 596.676C149.284 593.532 148.672 575.688 148.653 557.021L148.619 523.081L144.689 523.238C142.527 523.324 138.187 523.894 135.043 524.504ZM197.563 526.185C183.868 528.902 182.916 529.313 182.916 532.517C182.916 535.354 183.638 535.942 187.11 535.942C200.673 535.942 202.922 541.025 202.922 571.668C202.922 602.162 200.739 607.394 188.012 607.394C183.529 607.394 182.916 607.824 182.916 610.966V614.539H212.311H241.705L241.249 611.324C240.933 609.109 239.681 607.984 237.219 607.708C225.038 606.344 224.046 604.236 223.24 577.967C222.732 561.402 223.03 557.041 224.918 553.389C232.755 538.233 255.209 531.069 265.41 540.47C271.825 546.381 272.945 551.337 272.945 573.812C272.945 601.681 271.299 605.748 259.369 607.344C254.815 607.953 253.56 608.761 253.196 611.324L252.74 614.539H283.663H314.585L314.13 611.324C313.749 608.653 312.549 607.98 307.046 607.347C303.402 606.927 299.428 605.759 298.213 604.752C294.772 601.896 292.951 590.264 292.951 571.142C292.951 550.174 290.681 541.041 283.491 533.083C276.669 525.532 268.495 522.602 256.228 523.313C245.366 523.941 235.749 527.877 228.479 534.668C225.997 536.987 223.679 538.599 223.33 538.249C222.98 537.899 221.906 534.505 220.94 530.705C218.8 522.275 218.023 522.125 197.563 526.185ZM351.369 525.462C342.996 528.257 332.097 536.455 326.962 543.818C310.663 567.192 319.583 601.419 345.412 614.615C351.323 617.636 354.204 618.112 366.546 618.112C379.671 618.112 381.594 617.743 390.125 613.599C395.234 611.115 401.312 607.504 403.633 605.572C407.775 602.121 407.807 601.989 405.393 598.305L402.934 594.553L396.978 598.867C388.785 604.803 377.414 607.92 368.171 606.765C350.155 604.514 340.139 592.12 340.118 572.053L340.109 564.577L371.905 564.193L403.701 563.808L404.138 556.968C404.704 548.128 399.478 536.342 392.7 531.174C382.236 523.191 365.215 520.839 351.369 525.462ZM545.305 525.329C532.747 529.93 526.013 539.052 529.051 547.346C530.702 551.852 532.625 553.042 538.306 553.069C543.3 553.092 547.319 548.961 547.319 543.802C547.319 535.708 557.822 530.069 567.5 532.969C574.093 534.943 576.638 539.132 577.991 550.234L578.949 558.092L565.996 561.2C536.438 568.294 523.015 579.252 523.031 596.273C523.04 607.254 531.219 616.117 543.216 618.143C550.608 619.392 562.148 615.831 570.919 609.593C574.832 606.812 578.449 604.536 578.955 604.536C579.462 604.536 580.285 606.164 580.784 608.153C582.743 615.957 597.954 620.107 607.155 615.348C613.227 612.208 614.963 609.533 613.143 606.129C611.672 603.384 611.414 603.361 607.475 605.622C599.806 610.023 599.204 608.016 598.461 575.572C597.934 552.556 597.301 545.498 595.354 540.964C589.76 527.921 581.002 523.111 563.038 523.213C556.227 523.253 548.438 524.181 545.305 525.329ZM641.992 526.299C628.336 528.969 627.344 529.392 627.344 532.553C627.344 535.565 627.992 535.942 633.171 535.942C637.655 535.942 639.924 536.87 643.024 539.969C646.609 543.555 647.167 545.391 648.11 556.71C649.342 571.501 648.05 595.722 645.76 600.746C643.851 604.936 639.778 607.17 633.061 607.707C629.112 608.024 627.963 608.784 627.602 611.324L627.146 614.539H658.069H688.991L688.536 611.324C688.165 608.719 686.914 607.953 681.941 607.29C678.388 606.815 674.474 605.145 672.652 603.324C669.728 600.403 669.467 598.613 669.031 578.42C668.738 564.915 669.175 554.6 670.184 551.223C672.406 543.781 681.838 534.513 687.189 534.513C691.889 534.513 693.686 536.291 695.138 542.373C696.6 548.502 699.998 551.665 705.091 551.64C710.314 551.615 712.086 550.604 714.301 546.397C717.336 540.631 716.27 534.826 711.15 529.24C706.851 524.549 705.467 523.944 697.766 523.387C687.408 522.638 681.562 525.019 673.322 533.34L667.622 539.098L665.96 531.089C664.003 521.669 664.831 521.835 641.992 526.299ZM1032.12 526.359C1017.35 529.014 1016.04 529.509 1016.04 532.41C1016.04 535.108 1017.01 535.679 1022.63 536.314C1032.9 537.471 1034.77 540.299 1036.45 557.261C1037.39 566.818 1037.39 576.493 1036.45 586.003C1034.76 603.07 1032.28 606.974 1022.65 607.678C1017.78 608.033 1016.68 608.67 1016.3 611.324L1015.84 614.539H1046.76H1077.69L1077.23 611.324C1076.89 608.923 1075.69 608.003 1072.49 607.694C1065.45 607.012 1060.82 604.574 1058.86 600.509C1057.56 597.801 1056.82 585.877 1056.36 559.879L1055.71 523.081L1051.95 523.275C1049.89 523.381 1040.96 524.77 1032.12 526.359ZM1105 526.299C1091.34 528.969 1090.35 529.392 1090.35 532.553C1090.35 535.565 1091 535.942 1096.18 535.942C1100.66 535.942 1102.93 536.87 1106.03 539.969C1109.62 543.556 1110.17 545.391 1111.12 556.728C1112.38 571.928 1111.16 595.489 1108.84 600.577C1106.86 604.929 1102.86 607.162 1096.07 607.707C1092.12 608.024 1090.97 608.784 1090.61 611.324L1090.15 614.539H1119.55H1148.94V610.966C1148.94 607.775 1148.35 607.394 1143.45 607.394C1133.53 607.394 1132.57 604.942 1132.1 578.31C1131.74 557.505 1131.97 554.794 1134.48 550.756C1143.33 536.515 1164.79 531.564 1174.7 541.473C1179.61 546.387 1181.84 556.365 1181.7 572.81C1181.48 599.414 1178.34 606.848 1166.98 607.678C1162.12 608.033 1161.01 608.67 1160.63 611.324L1160.17 614.539H1191.1H1222.02L1221.56 611.324C1221.19 608.67 1220.08 608.033 1215.21 607.678C1211.13 607.38 1208.28 606.138 1205.92 603.634C1202.71 600.212 1202.48 598.723 1201.62 575.484C1200.99 558.21 1200.03 549.074 1198.38 544.615C1192.95 529.895 1183.12 523.081 1167.32 523.081C1154.96 523.081 1146.15 526.299 1137.7 533.9L1130.72 540.171L1129.04 531.625C1127.07 521.582 1128.03 521.796 1105 526.299ZM1261.83 524.417C1248.87 528.374 1237.04 538.689 1230.78 551.502C1225.79 561.696 1225.34 576.877 1229.68 588.817C1233.74 599.99 1245.51 611.735 1256.83 615.928C1269.47 620.602 1286.18 619.626 1299.02 613.463C1304.14 611.002 1309.85 607.377 1311.7 605.406C1317.59 599.136 1312.12 593.297 1305.34 598.624C1300.33 602.571 1287.12 607.394 1281.33 607.394C1268.51 607.394 1255.43 599.627 1251.19 589.497C1248.51 583.069 1247 572.584 1248.13 568.114L1249.03 564.523H1280.44H1311.85V555.892C1311.85 536.234 1297.12 523.037 1275.41 523.235C1269.91 523.285 1263.8 523.817 1261.83 524.417ZM1350.78 526.096C1343.4 529.749 1338.96 535.621 1337.97 543.063C1336.03 557.528 1342.94 567.09 1363.26 578.04C1383.44 588.919 1387.66 596.112 1378.95 604.817C1374.94 608.83 1374 609.116 1366.79 608.519C1360.84 608.026 1357.7 606.844 1353.63 603.567C1347.26 598.432 1341.92 589.614 1341.88 584.172C1341.86 580.94 1341.23 580.242 1338.29 580.242H1334.71V599.534V618.826H1338.29C1341.15 618.826 1341.86 618.112 1341.86 615.254C1341.86 610.721 1343.76 610.746 1353.95 615.412C1368.63 622.13 1386.56 618.456 1394.83 607.034C1402.81 596.017 1401.44 581.581 1391.5 572.038C1388.96 569.595 1380.51 564.003 1372.73 559.613C1356.99 550.729 1354.83 548.644 1354.77 542.237C1354.69 534.449 1363.23 529.999 1372.44 533.036C1378.12 534.912 1386.16 543.272 1386.16 547.307C1386.16 551.89 1387.78 554.52 1390.6 554.52C1393.09 554.52 1393.3 553.271 1393.3 538.8C1393.3 524.217 1393.1 523.081 1390.54 523.081C1389.02 523.081 1387.39 524.323 1386.91 525.841C1386.04 528.56 1385.95 528.561 1380.02 525.872C1371.69 522.086 1358.68 522.186 1350.78 526.096ZM0 529.939C0 531.572 1.79629 533.16 4.92444 534.29C7.76678 535.319 11.0864 538.073 12.7727 540.801C15.3707 545.004 27.909 572.253 42.4308 605.25C48.0383 617.993 50.2719 621.011 53.2471 619.869C54.3589 619.442 61.8627 603.117 69.921 583.592C88.0926 539.564 89.7503 536.568 97.207 534.335C101.158 533.151 102.89 531.83 102.89 530C102.89 527.578 101.405 527.368 84.3128 527.368C67.4017 527.368 65.7354 527.598 65.7354 529.93C65.7354 531.588 67.3745 532.976 70.3798 533.86C73.435 534.761 75.1699 536.251 75.4514 538.216C75.6858 539.859 73.0506 547.898 69.5938 556.079C66.137 564.26 61.8056 574.659 59.9664 579.186C58.1273 583.715 56.1695 586.93 55.6164 586.331C53.4315 583.968 35.7258 541.89 35.7258 539.061C35.7258 535.774 39.5413 533.084 44.2056 533.084C46.2048 533.084 47.158 532.163 47.158 530.226C47.158 527.484 46.2048 527.368 23.579 527.368C1.83059 527.368 0 527.568 0 529.939ZM410.132 530.226C410.132 532.138 411.085 533.084 413.011 533.084C419.828 533.084 425.382 541.56 441.523 576.6C450.195 595.424 457.29 611.851 457.29 613.101C457.29 615.432 445.779 644.93 442.069 652.11C440.935 654.305 436.822 659.616 432.929 663.915C425.191 672.461 423.836 678.008 428.465 682.197C432.035 685.428 438.219 685.169 441.228 681.662C442.595 680.069 455.709 648.85 470.37 612.288C485.03 575.727 498.535 543.581 500.379 540.851C502.537 537.66 505.645 535.308 509.092 534.26C512.755 533.147 514.451 531.8 514.451 530C514.451 527.578 512.966 527.368 495.874 527.368C478.662 527.368 477.296 527.565 477.296 530.048C477.296 531.865 478.638 532.996 481.469 533.562C488.564 534.981 488.223 538.399 478.557 562.74C473.641 575.116 469.235 585.717 468.763 586.294C467.629 587.686 447.287 542.946 447.287 539.061C447.287 535.774 451.104 533.084 455.766 533.084C457.766 533.084 458.719 532.163 458.719 530.226C458.719 527.48 457.766 527.368 434.425 527.368C411.085 527.368 410.132 527.48 410.132 530.226ZM907.434 530.113C907.434 531.974 908.756 533.147 911.542 533.759C913.801 534.256 916.976 536.075 918.597 537.803C920.217 539.531 929.497 558.628 939.22 580.242C953.189 611.292 957.503 619.629 959.78 619.964C962.276 620.331 964.251 616.523 974.598 591.383C996.359 538.506 998.146 535.319 1006.98 533.662C1010.39 533.021 1011.75 531.995 1011.75 530.068C1011.75 527.554 1010.42 527.368 992.462 527.368C974.865 527.368 973.17 527.593 973.17 529.93C973.17 531.588 974.809 532.976 977.814 533.86C981.105 534.829 982.599 536.214 982.937 538.61C983.342 541.473 967.374 583.076 964.619 586.337C963.58 587.568 943.16 541.881 943.16 538.326C943.16 535.684 947.367 533.084 951.64 533.084C953.639 533.084 954.592 532.163 954.592 530.226C954.592 527.484 953.639 527.368 931.013 527.368C908.712 527.368 907.434 527.517 907.434 530.113ZM380.362 540.032C383.165 543.169 384.409 546.093 384.409 549.541V554.52H363.688C340.275 554.52 340.204 554.477 347.339 544.627C352.926 536.914 358.638 534.32 368.573 534.985C375.129 535.424 376.935 536.197 380.362 540.032ZM793.979 538.226C797.129 540.269 801.438 544.677 803.554 548.022C807.167 553.732 807.402 555.13 807.402 570.818C807.402 589.264 806.468 592.329 798.592 599.72C791.969 605.936 788.611 607.394 780.918 607.394C763.487 607.394 752.699 593.594 752.515 571.058C752.382 554.84 759.157 541.01 769.422 536.54C776.925 533.273 787.456 533.996 793.979 538.226ZM1284.88 536.751C1289.7 539.243 1293.89 547.47 1292.53 551.766C1291.72 554.317 1290.13 554.52 1271.03 554.52C1259.68 554.52 1250.4 554.038 1250.41 553.448C1250.44 549.185 1260.55 537.674 1266.12 535.554C1270.43 533.917 1280.66 534.571 1284.88 536.751ZM577.354 593.788C574.305 597.462 564.53 603.394 559.747 604.473C549.259 606.838 541.578 598.868 544.505 588.659C546.87 580.417 554.137 575.181 570.183 570.156L578.043 567.695L578.457 579.826C578.7 586.926 578.243 592.716 577.354 593.788Z" fill="#8F8E8C"/>
</svg>
