<svg width="1400" height="249" viewBox="0 0 1400 249" fill="none" xmlns="http://www.w3.org/2000/svg">
<path fill-rule="evenodd" clip-rule="evenodd" d="M1015.2 1.16689C1015.2 1.80868 1014.51 2.33379 1013.67 2.33379C1011.52 2.33379 1005.07 9.29197 1003.6 13.2034C999.927 22.9458 1003.89 34.0966 1012.75 38.9159C1019.74 42.7223 1026.15 42.9031 1033.4 39.4993C1040.97 35.9391 1044.92 29.6297 1044.9 21.1184C1044.88 13.1812 1042.36 8.46697 1035.48 3.52984C1031.2 0.456248 1029.58 0 1022.88 0C1018.54 0 1015.2 0.507598 1015.2 1.16689ZM77.0149 30.7068C66.4674 35.8866 52.3643 39.1889 35.8819 40.3383L25.6716 41.0513V59.4917C25.6716 75.2307 25.4009 78.036 23.8256 78.6404C22.8104 79.0301 17.0343 79.3487 10.9898 79.3487H0V82.8097V86.2707L12.5441 86.6021L25.0882 86.9335L25.7031 153.446C26.1244 199.04 26.7382 221.145 27.6565 223.727C31.7792 235.33 38.8505 242.537 49.9325 246.433C55.5966 248.423 58.8907 248.699 72.9343 248.36C88.7434 247.979 89.6045 247.828 97.138 244.116C104.535 240.473 111.926 234.185 116.767 227.419C118.923 224.406 118.917 224.35 116.112 221.715L113.28 219.054L109.25 222.592C101.877 229.067 90.328 230.462 87.5216 225.22C86.741 223.761 86.4352 199.564 86.6324 154.965L86.9335 86.9335L102.395 86.6079L117.856 86.2824V82.8494V79.4164L102.395 79.0908L86.9335 78.7653L86.6184 53.3853C86.2637 24.702 86.776 25.9132 77.0149 30.7068ZM518.786 31.0953C511.73 34.7652 492.718 39.6113 484.844 39.7467C481.635 39.8027 476.646 40.2018 473.758 40.6359L468.507 41.4247L467.924 60.095L467.341 78.7653L455.38 79.0978L443.419 79.4304V82.8494V86.2684L455.38 86.6009L467.341 86.9335L468.051 151.696C468.444 187.539 469.278 218.622 469.916 221.305C472.345 231.505 479.144 239.921 489.376 245.395C493.769 247.745 495.822 247.965 513.433 247.965C532.349 247.965 532.809 247.905 539.688 244.548C546.937 241.01 561.275 227.97 561.275 224.916C561.275 223.993 560.24 222.301 558.975 221.156C556.751 219.144 556.54 219.194 552.589 222.663C545.844 228.585 536.642 230.286 531.941 226.481L529.186 224.251V155.592V86.9335L545.231 86.6091L561.275 86.2847V82.8494V79.414L545.231 79.0897L529.186 78.7653L528.871 53.3853C528.514 24.5444 529.06 25.7521 518.786 31.0953ZM183.786 76.0557C164.216 80.8563 156.823 83.9147 148.684 90.5777C141.256 96.6595 137.688 104.257 137.719 113.93C137.781 133.271 149.953 143.842 170.005 141.97C186.807 140.401 197.205 129.844 197.205 114.355C197.205 103.466 192.412 95.2115 183.115 90.0841C179.972 88.3513 177.393 86.6033 177.384 86.1995C177.341 84.2882 185.798 82.2683 193.739 82.2951C204.57 82.3313 208.947 84.9393 213.082 93.8193C215.656 99.3469 215.853 101.179 215.856 119.606C215.859 136.61 215.566 139.889 213.8 142.567C209.339 149.331 201.851 153.375 178.535 161.616C145.75 173.203 135.365 180.774 130.082 196.945C127.352 205.297 128.107 220.372 131.587 226.961C136.641 236.533 143.202 241.823 154.016 245.043C174.204 251.056 199.029 244.739 212.512 230.16C216.341 226.02 217.218 225.534 217.768 227.243C219.869 233.776 221.251 236.081 225.216 239.663C231.03 244.916 239.844 247.381 252.812 247.382C266.887 247.384 281.003 244.43 288.475 239.92C295.314 235.793 295.933 234.775 293.547 231.582C291.898 229.374 291.711 229.366 288.186 231.336C282.499 234.515 279.338 234.017 277.835 229.704C276.975 227.238 276.554 208.102 276.554 171.573C276.554 115.65 276.041 107.757 271.811 98.4496C267.646 89.2836 254.498 79.8119 241.735 76.7815C234.73 75.1175 189.897 74.5574 183.786 76.0557ZM351.235 76.0744C329.098 82.3324 314.434 94.2348 309.921 109.609C306.659 120.714 308.207 131.937 314.734 144.537C318.304 151.424 331.759 165.664 348.901 180.693C354.998 186.038 362.409 192.997 365.37 196.156C379.28 210.995 381.904 228.558 371.409 236.563C367.736 239.365 366.234 239.726 358.125 239.759C351.173 239.787 348.517 240.263 347.033 241.747C341.432 247.35 349.656 249.063 378.265 248.253C395.141 247.776 398.218 247.371 405.109 244.727C420.829 238.693 432.823 228.462 438.363 216.359C440.829 210.977 441.264 208.31 441.244 198.722C441.222 188.062 440.977 186.932 436.888 178.658C431.371 167.497 421.883 157.912 398.363 139.742C372.231 119.556 366.396 112.233 366.409 99.634C366.426 81.665 393.232 76.9181 408.412 92.1962C415.046 98.8732 423.481 115.746 423.572 122.524C423.584 123.486 424.142 126.244 424.811 128.65C425.845 132.373 426.512 133.026 429.287 133.026H432.548L433.316 111.835C433.739 100.18 434.084 87.0525 434.084 82.6627V74.6811H430.679C427.903 74.6811 426.88 75.4886 425.136 79.057C422.661 84.1225 418.959 85.1587 412.828 82.504C404.628 78.952 402.327 78.1748 394.923 76.4571C386.209 74.4361 357.905 74.1887 351.235 76.0744ZM620.203 77.1549C590.353 85.2765 571.139 105.362 564.601 135.28C562.09 146.775 561.571 179.469 563.753 188.729C567.875 206.219 572.907 217.505 580.365 225.986C585.101 231.374 596.775 240.057 602.7 242.599C614.6 247.706 616.315 247.965 638.29 247.965H659.878L667.463 244.357C682.395 237.254 695.265 224.353 703.439 208.29C708.783 197.789 709.166 195.214 705.623 193.6C702.956 192.384 702.319 192.699 698.211 197.261C685.065 211.865 662.509 217.634 647.834 210.147C632.709 202.431 625.454 186.364 625.454 160.585V147.058L667.754 146.751L710.054 146.445L709.836 135.727C709.214 105.176 695.391 84.434 670.634 76.9052C660.433 73.8036 632.008 73.9436 620.203 77.1549ZM1174.73 76.596C1160.19 79.4665 1147.45 87.3582 1139.61 98.3445C1136.65 102.5 1134.22 106.489 1134.22 107.211C1134.22 107.932 1133.69 108.521 1133.05 108.521C1132.33 108.521 1131.89 102.492 1131.89 92.768C1131.89 80.9438 1131.52 77.0149 1130.43 77.0149C1129.63 77.0149 1124.85 77.8026 1119.82 78.7653C1114.23 79.8365 1103.89 80.5156 1093.2 80.5156H1075.72L1076.09 83.7245C1076.4 86.4259 1077.2 87.0898 1081.13 87.9218C1093.03 90.4423 1098.03 95.3491 1100.21 106.674C1101.96 115.709 1102.05 215.649 1100.32 222.293C1097.63 232.627 1094.09 235.561 1082.88 236.771C1076.75 237.431 1076.44 237.626 1076.11 241.024L1075.76 244.585L1114.96 244.564L1154.17 244.543L1153.82 241.003C1153.5 237.686 1153.1 237.417 1147.58 236.744C1140.53 235.883 1137.55 234.192 1134.65 229.39C1132.65 226.092 1132.44 222.356 1132.1 184.448C1131.73 144.144 1132.62 127.841 1135.58 120.424C1141.11 106.563 1148.67 96.9851 1158.4 91.5217C1169.55 85.2625 1186.1 85.2532 1194.29 91.5007C1203.51 98.5313 1204.5 106.99 1204.01 174.313C1203.66 222.972 1203.52 225.994 1201.37 229.453C1198.34 234.321 1195.59 235.883 1188.54 236.744C1183.02 237.417 1182.62 237.686 1182.3 241.002L1181.95 244.541L1221.16 244.581L1260.36 244.62L1260.01 241.041C1259.68 237.621 1259.37 237.432 1253.24 236.771C1244.56 235.834 1239.48 233 1237.11 227.759C1235.4 223.993 1235.08 216.294 1234.53 165.699C1233.84 102.324 1233.73 101.312 1226.52 91.3619C1219.5 81.6755 1209.72 77.1888 1193.16 76.0604C1185.82 75.5598 1178.97 75.7593 1174.73 76.596ZM1332.01 76.0464C1312.29 77.3685 1299.89 82.798 1286.88 95.8112C1279.6 103.091 1276.94 106.813 1272.69 115.688C1258.38 145.538 1258.14 183.264 1272.09 211.351C1280.81 228.93 1297.1 241.982 1316.51 246.955C1326.54 249.525 1356.97 248.707 1362.93 245.708C1365.18 244.578 1369.36 242.523 1372.22 241.142C1379.67 237.541 1393.33 223.623 1397.23 215.645C1401.18 207.568 1400.94 204.79 1396.28 204.79C1393.58 204.79 1392.4 205.681 1390.42 209.209C1383 222.474 1371.25 230.785 1355.24 234.094C1344.84 236.247 1337.83 235.305 1327.22 230.332C1313.41 223.851 1300.9 204.721 1297.11 184.278C1294.85 172.108 1294.62 151.823 1296.71 149.005C1298.03 147.219 1302.86 147.009 1348.93 146.74L1399.69 146.445L1399.34 136.526C1398.65 116.962 1393.35 102.828 1382.71 92.1518C1370.37 79.7699 1354.01 74.5715 1332.01 76.0464ZM1032.12 78.4245C1030.19 79.0897 1019.01 79.7011 1007.27 79.7828C985.973 79.9322 985.931 79.9368 985.247 82.6428C984.316 86.3255 985.747 87.4294 992.923 88.5637C1000.32 89.7329 1004.5 92.6233 1007.61 98.7051C1009.86 103.098 1009.95 105.57 1009.95 164.532C1009.95 221.844 1009.81 225.996 1007.82 228.922C1004.55 233.747 1000.35 235.904 992.942 236.576C986.002 237.205 984.546 238.352 985.593 242.357C986.143 244.459 987.965 244.559 1026.41 244.577L1066.65 244.597L1066.31 241.03C1065.97 237.63 1065.66 237.429 1059.54 236.737C1050.72 235.74 1047.46 233.946 1044.22 228.299L1041.45 223.46L1041.12 150.237L1040.79 77.0149L1038.2 77.1153C1036.78 77.1701 1034.04 77.7594 1032.12 78.4245ZM852.029 80.2239C850.965 82.2928 844.177 100.117 827.921 143.528C822.994 156.685 818.524 168.499 817.985 169.783C817.447 171.066 816.091 174.742 814.972 177.951C813.854 181.16 812.5 184.285 811.965 184.894C811.429 185.504 810.987 186.817 810.983 187.811C810.979 188.807 810.273 190.968 809.413 192.615C808.554 194.262 807.497 197.019 807.064 198.742C805.984 203.045 804.729 202.665 802.961 197.497C801.022 191.829 797.229 181.242 791.152 164.532C788.468 157.151 784.945 147.437 783.323 142.944C781.701 138.452 779.942 133.726 779.413 132.442C776.368 125.056 770.246 106.082 769.607 102.051C768.682 96.2243 770.416 91.3385 773.918 89.9021C775.374 89.3046 780.112 88.482 784.444 88.0735C792.146 87.3477 792.32 87.2579 792.32 84.0151V80.6988L758.188 80.8038C739.417 80.8622 723.007 80.6895 721.723 80.4199C719.994 80.0582 719.291 80.6276 719.009 82.6218C718.536 85.9451 720.669 88.6838 723.728 88.6838C727.624 88.6838 732.194 92.8812 735.382 99.3889C737.056 102.807 742.215 115.581 746.846 127.775C751.478 139.969 755.919 151.521 756.715 153.446C757.512 155.372 758.976 159.047 759.969 161.615C764.15 172.421 776.04 203.393 780.575 215.292C789.762 239.396 792.703 246.112 794.346 246.742C796.753 247.666 800.219 245.442 801.077 242.423C801.487 240.979 803.572 235.071 805.71 229.294C807.849 223.518 811.789 212.754 814.467 205.373C817.143 197.993 819.792 190.904 820.352 189.62C820.914 188.336 824.33 179.147 827.947 169.199C831.564 159.252 836.633 145.336 839.212 138.277C841.792 131.217 844.172 124.521 844.502 123.399C844.833 122.276 845.453 121.357 845.884 121.357C846.313 121.357 850.801 131.466 855.856 143.82C860.912 156.173 866.275 169.055 867.775 172.443C869.274 175.831 870.502 178.902 870.502 179.269C870.502 179.634 871.242 181.587 872.145 183.609C873.048 185.632 879.219 200.539 885.856 216.735C897.904 246.137 897.93 246.185 901.486 246.199C905.436 246.216 903.82 249.878 918.482 207.707C921.048 200.326 923.601 193.237 924.156 191.954C924.71 190.67 926.207 186.469 927.484 182.619C929.68 175.991 941.001 143.475 950.424 116.73C952.79 110.015 955.714 102.583 956.922 100.215C959.561 95.0411 966.528 89.0502 971.064 88.0549C973.758 87.4621 974.355 86.7129 974.355 83.9241V80.5156H948.684C934.564 80.5156 922.619 80.3837 922.137 80.2239C921.655 80.064 921.102 81.5751 920.907 83.5822C920.562 87.1249 920.718 87.2556 926.158 88.0105C946.796 90.8718 948.35 96.9548 936.993 130.419C933.13 141.801 925.977 162.927 921.098 177.368C916.22 191.808 912.028 203.841 911.785 204.109C910.886 205.099 909.858 202.836 901.94 182.448C897.492 170.989 893.387 160.564 892.819 159.281C892.25 157.997 890.872 154.584 889.756 151.696C888.639 148.808 887.272 145.395 886.718 144.111C886.164 142.828 882.267 132.851 878.056 121.94C873.847 111.03 869.714 100.528 868.873 98.6024C868.032 96.6771 866.131 91.9511 864.648 88.1004C863.166 84.2496 861.448 80.4432 860.833 79.6404C859.153 77.4502 853.256 77.8411 852.029 80.2239ZM651.305 86.0583C657.031 92.2872 660.461 107.291 660.461 126.1V138.86H642.442H624.423L624.994 130.4C626.943 101.492 634.648 82.8494 644.649 82.8494C647.199 82.8494 649.275 83.8506 651.305 86.0583ZM1347.62 85.804C1353.62 89.0666 1359.43 96.628 1362.35 104.974C1364.37 110.765 1367.59 129.195 1367.59 135.068L1367.6 138.86H1331.9H1296.2L1296.98 132.734C1298.99 116.928 1304.91 102.6 1313.11 93.656C1322.74 83.1656 1336.87 79.9497 1347.62 85.804ZM213.547 217.554C209.96 221.142 198.424 220.928 194.454 217.2C189.769 212.798 188.778 208.86 189.216 196.402C189.732 181.763 192.667 175.605 205.82 161.563L215.292 151.45L215.602 183.319C215.902 213.994 215.825 215.278 213.547 217.554ZM321.871 204.186C316.383 205.196 312.531 207.757 308.448 213.11C305.762 216.631 305.184 218.555 305.196 223.927C305.214 231.876 307.853 236.812 314.448 241.229C321.246 245.783 331.429 245.786 337.996 241.239C349.071 233.572 350.896 220.091 342.117 210.812C336.562 204.94 329.8 202.728 321.871 204.186Z" fill="#8F8E8C"/>
</svg>
