<svg width="1400" height="835" viewBox="0 0 1400 835" fill="none" xmlns="http://www.w3.org/2000/svg">
<path fill-rule="evenodd" clip-rule="evenodd" d="M121.143 2.68998C56.4367 14.4324 17.7981 54.0808 4.24461 122.647C-2.09608 154.721 -1.22204 211.891 6.12458 245.552C20.8375 312.963 59.3698 352.093 121.745 362.972C131.072 364.598 144.295 365.928 151.13 365.928C161.429 365.928 164.504 365.115 169.081 361.178L174.605 356.426V329.979C174.605 300.697 172.965 294.929 163.534 291.021C159.931 289.531 153.478 289.157 145.586 289.982C129.519 291.663 118.34 286.442 109.412 273.084C92.717 248.103 85.646 171.196 95.7762 124.781C99.8215 106.251 109.78 87.0107 119.172 79.5814C126.436 73.8353 127.562 73.5853 147.683 73.2467C175.741 72.7762 175.589 72.9632 175.589 39.0235C175.589 11.8181 174.006 5.42031 166.421 1.96354C160.181 -0.879038 138.933 -0.536474 121.143 2.68998ZM273.032 1.751C227.637 8.57792 203.881 29.7339 193.914 72.2053C190.737 85.7469 190.353 97.6448 190.353 182.853C190.353 268.062 190.737 279.96 193.914 293.502C202.779 331.278 221.736 351.186 258.408 361.231C274.751 365.706 326.714 366.304 342.916 362.202C388.887 350.564 408.549 322.86 413.846 262.269C416.846 227.951 413.372 91.6054 408.99 71.8037C400.037 31.3205 377.838 9.82597 337.575 2.64864C321.277 -0.256933 289.332 -0.701812 273.032 1.751ZM1141.16 2.72542C1105.77 9.38502 1085.51 23.1727 1073.51 48.756C1068.85 58.707 1068.33 62.0948 1068.34 82.4575C1068.35 108.503 1071.15 119.196 1083.3 139.663C1087.51 146.766 1090.96 153.447 1090.96 154.508C1090.96 155.571 1080.98 166.591 1068.78 178.997C1038.69 209.58 1029.94 228.018 1029.94 260.79C1029.94 292.535 1040.63 321.227 1058.98 338.733C1080.37 359.131 1097.68 364.899 1137.22 364.808C1171.26 364.729 1185.07 361.627 1212.54 347.891C1232.27 338.024 1232.83 337.875 1236.72 341.396C1238.91 343.379 1242.53 347.957 1244.76 351.574C1251.91 363.133 1255.6 363.96 1300.08 363.96C1344.87 363.96 1348.84 362.977 1348.84 351.908C1348.84 343.534 1346.24 339.455 1329.57 321.677C1321.47 313.039 1312.64 302.645 1309.95 298.58L1305.05 291.188L1317.88 271.964C1324.94 261.389 1332.63 248.9 1334.98 244.211C1340.76 232.662 1346.87 207.982 1346.87 196.218C1346.87 186.97 1346.59 186.47 1339.56 183.535C1334.02 181.218 1327.06 180.656 1310.81 181.212C1291.17 181.885 1289.06 182.33 1285.65 186.554C1283.59 189.09 1281.91 194.054 1281.91 197.588C1281.91 210.887 1268.66 236.774 1262.46 235.579C1258.98 234.91 1215.02 181.166 1215 177.554C1214.99 176.265 1220.07 171.29 1226.3 166.499C1252.54 146.309 1264.94 126.242 1268.05 98.9263C1272.8 57.2679 1258.54 27.5311 1226.19 11.6468C1203.24 0.37297 1171.41 -2.96565 1141.16 2.72542ZM445.92 4.61917C442.483 6.11527 438.054 9.8043 436.077 12.8201C432.687 17.9954 432.451 27.2377 431.896 176.859C431.571 264.066 431.868 339.325 432.555 344.103C433.4 349.959 435.672 354.654 439.538 358.519L445.268 364.251L473.682 363.613C518.223 362.613 517.831 363.245 518.036 292.108C518.112 265.04 518.929 241.705 519.851 240.252C521.252 238.042 522.227 238.042 525.815 240.252C534.967 245.89 544.211 264.674 553.467 296.441C565.265 336.934 590.683 361.729 623.961 365.208C640.485 366.934 653.452 364.633 659.115 358.969C663.635 354.45 663.789 353.286 663.789 323.581C663.789 273.944 660.806 268.166 636.41 270.572C622.745 271.918 622.441 271.846 616.949 265.967C610.563 259.131 607.221 249.434 605.467 232.648C603.923 217.874 605.766 214.395 619.148 206.844C639.044 195.616 651.81 176.737 656.078 152.237C659.092 134.923 657.332 87.493 653.086 71.6305C643.172 34.6001 620.75 11.6744 587.567 4.64278C568.749 0.656474 455.078 0.636802 445.92 4.61917ZM693.742 4.70971C689.299 6.64085 686.083 10.1527 683.451 15.9521C679.76 24.0861 679.626 30.0213 679.691 182.853C679.742 300.421 680.366 343.052 682.108 348.026C686.655 361.001 692.034 362.976 722.845 362.976C747.44 362.976 750.661 362.572 755.675 358.853C765.275 351.733 765.921 346.615 766.043 276.714L766.153 212.108L770.516 212.736C778.207 213.846 783.536 225.644 801.839 282.094C811.698 312.504 821.883 341.575 824.471 346.7C831.938 361.481 835.438 362.867 867.331 363.665C907.9 364.68 915.57 361.196 913.06 342.888C911.042 328.164 876.465 242.41 848.364 182.438L838.484 161.353L864.159 112.555C901.971 40.6869 907.895 27.9582 907.859 18.6234C907.841 14.2138 907.16 9.55427 906.341 8.26881C903.278 3.4498 893.093 1.74703 867.343 1.74703C838.287 1.74703 829.783 3.816 824.277 12.2217C818.993 20.2849 807.798 48.063 796.697 80.6582C790.951 97.5326 784.478 114.807 782.317 119.045C777.632 128.222 771.151 134.528 768.246 132.732C766.852 131.872 766.14 113.543 766.11 77.9121C766.049 2.8711 765.362 1.6742 722.416 1.82381C707.67 1.87499 698.036 2.84549 693.742 4.70971ZM1182.64 65.6579C1201.41 73.4967 1201.05 109.383 1182.05 126.998C1167.26 140.697 1147.35 121.821 1147.16 93.9282C1147.05 78.8255 1150.73 71.9533 1161.97 66.2209C1170.2 62.024 1173.72 61.9295 1182.64 65.6579ZM318.761 75.6837C321.315 77.357 324.277 81.0165 325.34 83.8158C326.539 86.9674 327.067 125.065 326.728 183.966C326.195 276.879 326.09 279.153 322.067 284.584C319.805 287.639 314.267 291.44 309.763 293.031C302.562 295.574 300.59 295.574 293.389 293.031C288.885 291.44 283.347 287.639 281.085 284.582C277.04 279.117 276.969 277.356 276.969 180.948C276.969 87.0186 277.129 82.6937 280.747 78.6976C288.164 70.5005 308.401 68.8942 318.761 75.6837ZM551.477 73.5459C561.204 78.5735 566.147 92.0817 566.997 115.948C567.43 128.147 566.777 140.193 565.403 145.295C561.129 161.172 547.637 169.389 530.975 166.262C518.276 163.881 518.112 163.282 518.146 119.228C518.164 97.379 518.827 78.544 519.622 77.3688C524.276 70.4946 541.566 68.4198 551.477 73.5459ZM1171.95 257.473C1201.07 294.283 1200.99 293.822 1178.65 297.301C1146.72 302.271 1127.1 291.992 1120.27 266.712C1115.94 250.697 1122.22 226.75 1132.67 219.431C1136.71 216.602 1137.38 216.703 1141.72 220.778C1144.3 223.197 1157.9 239.711 1171.95 257.473ZM121.143 471.204C56.4367 482.947 17.7981 522.595 4.24461 591.162C-2.09608 623.235 -1.22204 680.406 6.12458 714.066C20.8375 781.477 59.3698 820.608 121.745 831.486C131.072 833.112 144.295 834.443 151.13 834.443C161.429 834.443 164.504 833.63 169.081 829.693L174.605 824.94V798.493C174.605 769.211 172.965 763.443 163.534 759.536C159.931 758.045 153.478 757.671 145.586 758.496C129.519 760.177 118.34 754.957 109.412 741.598C92.717 716.617 85.646 639.71 95.7762 593.296C99.8215 574.766 109.78 555.525 119.172 548.096C126.436 542.35 127.562 542.1 147.683 541.761C175.741 541.29 175.589 541.477 175.589 507.538C175.589 480.332 174.006 473.935 166.421 470.478C160.181 467.635 138.933 467.978 121.143 471.204ZM731.544 470.409C721.184 473.417 717.892 478.88 718.162 492.614C718.294 499.268 729.05 563.177 742.064 634.635C755.078 706.093 767.236 773.207 769.079 783.776C772.825 805.253 779.919 821.257 788.437 827.452C793.534 831.159 797.313 831.539 834.505 832.098C862.474 832.517 876.76 831.984 880.636 830.378C888.241 827.228 896.888 816.993 900.731 806.598C903.898 798.025 955.14 535.92 959.512 505.922C962.183 487.596 960.801 481.547 952.537 475.383C947.705 471.781 943.718 471.163 921.73 470.602C890.386 469.801 886.341 471.366 880.701 486.474C875.711 499.841 874.845 505.75 860.701 622.824C848.541 723.482 845.936 741.045 842.893 742.927C837.883 746.023 835.432 731.423 827.204 649.399C811.481 492.691 808.587 477.746 792.676 471.096C785.061 467.915 741.808 467.429 731.544 470.409ZM1288.8 470.405C1267.28 474.017 1249.57 482.89 1237.73 495.992C1221.26 514.215 1211.74 547.068 1213.52 579.516C1215.31 612.042 1224.57 627.204 1271.57 674.591C1308.33 711.655 1313.41 718.828 1313.41 733.679C1313.41 743.407 1312.75 745.013 1305.96 751.807C1293.31 764.449 1280 765.868 1244.83 758.327C1229.76 755.094 1216.85 755.634 1211.95 759.703C1209.7 761.575 1209.08 767.687 1209.08 788.079C1209.08 817.602 1209.6 818.74 1226.82 826.34C1245.46 834.571 1295.86 836.677 1325.22 830.45C1342.35 826.818 1362.4 816.222 1374.2 804.558C1392.56 786.422 1400.01 764.933 1400 730.11C1399.99 678.034 1383.44 647.956 1328.96 601.012C1308.1 583.037 1303.57 575.925 1303.57 561.171C1303.57 548.468 1304.79 545.554 1311.58 542.041C1318.76 538.326 1327.66 538.407 1349.93 542.385C1370.11 545.987 1379.95 545.031 1385.48 538.922C1388.59 535.491 1389.3 531.005 1389.86 511.414L1390.51 488.004L1384.75 482.246C1378.68 476.177 1369.32 472.919 1349.83 470.086C1335.38 467.99 1302.17 468.163 1288.8 470.405ZM261.221 473.023C247.065 479.271 242.567 490.738 233.726 543.098C224.049 600.418 208.779 684.103 197.987 738.968C180.532 827.7 181.625 830.797 230.834 832.118C256.949 832.819 257.666 832.726 263.394 827.907C270.111 822.255 274.125 810.915 279.016 783.761C280.993 772.79 283.837 763.601 286.174 760.63C289.918 755.868 290.842 755.701 313.226 755.701C342.727 755.701 342.006 755.006 347.114 788.412C349.227 802.225 352.363 816.491 354.081 820.116C359.443 831.415 362.621 832.476 391.092 832.462C418.354 832.451 428.384 830.712 435.772 824.716C440.04 821.253 440.345 819.647 440.17 801.635C440.022 786.512 437.758 771.524 429.823 733.143C417.945 675.685 402.616 594.284 394.216 544.058C387.216 502.199 384.44 492.157 377.271 482.76C368.335 471.043 364.243 470.252 312.958 470.338C279.351 470.395 265.552 471.112 261.221 473.023ZM471.511 473.059C468.074 474.594 463.645 478.319 461.668 481.334C458.276 486.514 458.046 495.77 457.538 647.545C456.957 821.627 456.833 819.395 467.57 827.364C472.586 831.086 475.794 831.49 500.399 831.49C524.994 831.49 528.215 831.086 533.229 827.368C543.011 820.114 543.477 815.907 543.597 733.555C543.658 690.843 544.473 657.273 545.446 657.273C546.4 657.273 560.708 687.172 577.238 723.712C624.577 828.366 620.977 821.564 631.814 826.838C639.91 830.779 644.204 831.39 664.12 831.437C690.203 831.498 696.207 829.045 700.589 816.541C703.959 806.922 703.959 495.813 700.589 486.195C696.244 473.797 690.295 471.33 662.974 470.6C635.743 469.872 627.201 472.061 621.126 481.325C617.853 486.315 617.439 493.411 616.544 559.74C615.92 606.044 614.845 632.667 613.605 632.667C612.53 632.667 595.882 598.561 576.61 556.877C557.34 515.193 539.377 478.874 536.695 476.167C532.02 471.45 530.693 471.226 504.789 470.755C484.812 470.391 476.131 470.994 471.511 473.059ZM1017.14 473.023C1002.99 479.271 998.489 490.738 989.648 543.098C979.971 600.418 964.701 684.103 953.909 738.968C936.454 827.7 937.547 830.797 986.757 832.118C1012.87 832.819 1013.59 832.726 1019.32 827.907C1026.03 822.255 1030.05 810.915 1034.94 783.761C1036.92 772.79 1039.76 763.601 1042.1 760.63C1045.84 755.868 1046.76 755.701 1069.15 755.701C1098.65 755.701 1097.93 755.006 1103.04 788.412C1105.15 802.225 1108.28 816.491 1110 820.116C1115.37 831.415 1118.54 832.476 1147.01 832.462C1174.28 832.451 1184.31 830.712 1191.69 824.716C1195.96 821.253 1196.27 819.647 1196.09 801.635C1195.94 786.512 1193.68 771.524 1185.75 733.143C1173.87 675.685 1158.54 594.284 1150.14 544.058C1143.14 502.199 1140.36 492.157 1133.19 482.76C1124.26 471.043 1120.17 470.252 1068.88 470.338C1035.27 470.395 1021.47 471.112 1017.14 473.023ZM320.2 563.275C324.76 579.057 334.65 670.01 332.435 675.784C331.356 678.593 328.494 678.992 312.929 678.51L294.686 677.943L295.068 661.21C295.598 637.938 302.946 575.358 306.586 563.096C308.87 555.409 310.527 552.94 313.409 552.94C316.309 552.94 317.925 555.401 320.2 563.275ZM1076.12 563.275C1080.68 579.057 1090.57 670.01 1088.36 675.784C1087.28 678.593 1084.42 678.992 1068.85 678.51L1050.61 677.943L1050.99 661.21C1051.52 637.938 1058.87 575.358 1062.51 563.096C1064.79 555.409 1066.45 552.94 1069.33 552.94C1072.23 552.94 1073.85 555.401 1076.12 563.275Z" fill="#8F8E8C"/>
</svg>
