<svg width="1400" height="204" viewBox="0 0 1400 204" fill="none" xmlns="http://www.w3.org/2000/svg">
<path fill-rule="evenodd" clip-rule="evenodd" d="M1.75024 1.41827C13.0693 5.50013 19.1892 10.1302 26.7576 20.3369C34.1848 30.3545 41.9543 43.8209 73.6137 101.546C89.4645 130.447 104.711 158.066 107.495 162.921C120.122 184.941 129.624 196.762 137.952 200.812L142.156 202.857L180.411 202.988C204.788 203.072 217.293 202.846 214.881 202.367C207.725 200.945 201.22 196.979 194.484 189.928C186.667 181.747 176.668 166.683 157.306 133.915C142.585 109.005 135.027 95.5374 111.301 51.9417C91.8076 16.1205 85.2439 6.6713 76.6707 2.08415C73.2715 0.265596 72.5905 0.232804 35.3804 0.0688574C-1.97178 -0.0950897 -2.39972 -0.0782718 1.75024 1.41827ZM714.29 23.8874C681.398 30.2107 657.491 55.0576 651.575 89.0644C649.657 100.092 650.346 121.884 652.913 131.393C656.603 145.062 663.843 157.728 673.209 166.896C680.664 174.192 683.237 175.99 692.955 180.691C705.738 186.876 713.733 188.388 731.105 187.903C749.999 187.377 759.977 184.555 773.079 176.031C785.037 168.253 792.733 159.346 799.297 145.686C805.085 133.639 806.828 125.824 807.359 109.533C807.907 92.7587 806.358 82.5427 801.276 69.3874C800.883 68.3701 801.114 67.9161 802.026 67.9161C802.873 67.9161 803.673 66.6373 804.264 64.3428C806.897 54.1075 808.631 50.3149 812.75 45.7748C818.787 39.1244 821.448 38.345 839.787 37.8574L854.725 37.4606L854.5 104.333C854.278 170.259 854.251 171.24 852.55 173.58C850.049 177.019 844.11 179.689 837.608 180.296C832.118 180.809 831.995 180.872 831.995 183.221V185.622H867.307H902.619V183.22C902.619 180.861 902.514 180.809 896.785 180.276C886.691 179.339 883.218 177.092 881.164 170.174C880.111 166.628 879.918 156.054 879.918 101.814V37.6489H893.657C908.542 37.6489 912.969 38.451 918.585 42.1679C922.638 44.85 926.451 52.2881 928.383 61.2817L929.809 67.9161H933.091H936.373L935.766 50.166L935.159 32.416L938.016 32.9709C949.497 35.1989 952.571 37.0234 953.501 42.157C953.764 43.6082 953.868 73.4272 953.731 108.421C953.487 171.186 953.461 172.08 951.748 174.42C949.425 177.598 944.861 179.75 939.214 180.332C934.771 180.792 934.567 180.918 934.567 183.222V185.632L999.027 185.417L1063.49 185.201L1068.96 167.335C1071.96 157.509 1074.64 149.48 1074.91 149.493C1075.18 149.506 1076.61 151.527 1078.09 153.982C1084.9 165.232 1094.83 174.223 1107.34 180.469C1125.48 189.52 1150.78 191.35 1172.16 185.155C1180.89 182.624 1193.06 176.531 1198.97 171.734C1205.16 166.711 1205.66 166.486 1204.13 169.454C1200.81 175.864 1194.52 180.516 1189.11 180.559C1187.1 180.575 1186.79 180.913 1186.79 183.099V185.622H1210.81H1234.83L1234.56 183.31C1234.32 181.209 1233.91 180.95 1230.03 180.477C1221.97 179.493 1219.31 176.588 1219.41 168.903C1219.47 164.827 1220.34 162.093 1224.68 152.332C1227.54 145.902 1230.3 139.034 1230.81 137.068L1231.74 133.495H1262.52H1293.3L1295.61 138.216C1299.45 146.068 1303.48 155.844 1305.3 161.732C1307.01 167.257 1307.57 175.1 1306.38 176.878C1305.22 178.609 1301.61 179.997 1296.95 180.498C1292.66 180.961 1292.29 181.171 1292.04 183.31L1291.78 185.622H1322.52H1353.26V183.099C1353.26 180.851 1352.99 180.577 1350.71 180.577C1344.04 180.577 1338.42 175.38 1333.33 164.481C1331.52 160.618 1317.2 127.671 1301.5 91.2672L1272.97 25.0779L1269.55 25.0578L1266.12 25.0376L1238.54 89.1451C1223.36 124.405 1210.57 153.983 1210.11 154.875C1209.33 156.378 1209.2 156.393 1208.24 155.085C1207.67 154.309 1206.92 153.673 1206.57 153.673C1206.22 153.673 1203.77 155.675 1201.13 158.121C1187.16 171.057 1171.42 177.377 1153.16 177.377C1115.9 177.377 1094.19 151.362 1094.11 106.591C1094.06 80.487 1100.57 60.963 1113.7 47.7691C1123.56 37.8675 1135.31 33.1786 1150.22 33.203C1172.39 33.2383 1186.75 42.3638 1196.07 62.336C1197.82 66.0992 1199.89 71.3531 1200.65 74.0115L1202.05 78.8459H1205.4H1208.76L1208.29 66.0244C1208.03 58.9721 1207.58 46.4877 1207.3 38.2795L1206.79 23.3561H1203.57C1201.19 23.3561 1200.23 23.7563 1199.87 24.9047C1198.95 27.7961 1195.42 30.2637 1191.59 30.695C1188.9 30.9985 1185.02 30.2982 1177.46 28.1442C1152.41 21.0087 1130.91 22.0655 1111.2 31.3987C1094.66 39.2346 1083.19 50.441 1075.04 66.7373C1064.48 87.852 1062.91 117.892 1071.22 139.959L1073.22 145.265H1070.37C1067.64 145.265 1067.34 145.599 1063.05 153.397C1053.02 171.632 1045.19 175.139 1012.33 176.101C991.316 176.717 985.596 176.193 982.798 173.395L980.809 171.405V138.587V105.769L1000.36 106.205C1024.58 106.745 1027 106.958 1031.54 108.968C1036.15 111.005 1038.46 114.235 1040.14 121.006C1042.25 129.477 1043.09 130.973 1045.75 130.973H1048.07V102.387V73.8013H1045.56C1043.51 73.8013 1042.97 74.22 1042.56 76.1134C1040.96 83.4952 1038.57 89.7303 1036.28 92.4888C1032.04 97.614 1028.7 98.1832 1002.94 98.1832H980.809V68.439C980.809 41.782 980.953 38.5754 982.201 37.5413C984.115 35.9548 1034.14 35.8665 1039.32 37.4404C1047.36 39.8777 1051.12 44.2211 1053.82 54.1554C1054.79 57.7194 1055.89 60.942 1056.27 61.3161C1056.64 61.6911 1058.35 61.6087 1060.08 61.1337L1063.2 60.2702V43.0743V25.8783H930.912H798.62L798.072 34.8374C797.771 39.7642 797.524 47.331 797.524 51.6525C797.524 55.9731 797.24 59.4808 796.894 59.4463C796.547 59.4118 793.993 56.3002 791.219 52.5319C782.147 40.2098 768.712 31.0885 752.492 26.2382C745.862 24.2548 743.296 23.9606 730.684 23.7369C722.823 23.5974 715.446 23.6655 714.29 23.8874ZM254.397 28.2324C254.397 31.2617 255.787 32.6044 258.924 32.6044C262.493 32.6044 267.962 35.5201 270.057 38.5393C271.04 39.9559 286.716 74.1965 304.894 114.629L337.944 188.144H340.579H343.214L368.721 122.775C382.75 86.8229 396.368 52.8649 398.983 47.3134C404.431 35.7513 406.799 33.2391 413.71 31.6922C417.998 30.7329 418.344 30.4764 418.344 28.2669V25.8783H393.542H368.74V28.2585C368.74 31.1137 370.767 32.3152 376.505 32.8583C384.73 33.6377 386.975 37.8641 384.407 47.7379C383.028 53.0389 347.36 143.375 346.15 144.628C345.444 145.36 308.538 63.1734 303.795 50.3031C298.645 36.3314 299.91 33.3064 311.635 31.5627C315.067 31.0523 317.938 30.6042 318.016 30.5672C318.094 30.5294 318.419 29.4591 318.737 28.1887L319.317 25.8783H286.857H254.397V28.2324ZM428.433 28.3056C428.433 30.9271 428.317 30.8766 438.178 32.5413C444.559 33.6183 447.664 35.5537 449.5 39.5961C451.022 42.949 451.097 46.027 451.115 105.232C451.128 150.46 450.864 168.247 450.145 170.65C448.407 176.452 444.047 178.918 433.267 180.197C428.631 180.747 428.433 180.871 428.433 183.196V185.622H491.069H553.705V183.248C553.705 181.013 553.412 180.819 548.701 179.943C545.949 179.431 542.303 178.352 540.601 177.544C536.477 175.586 533.078 170.063 531.926 163.443C530.874 157.407 530.601 56.9677 531.636 57.0148C531.983 57.03 555.912 86.5329 584.813 122.577C634.706 184.799 637.498 188.111 640.066 188.127L642.771 188.144L643.009 116.89L643.246 45.6361L645.179 41.7123C646.242 39.554 648.012 37.1983 649.112 36.4777C650.908 35.3007 656.907 33.4813 663.214 32.2008C665.203 31.7972 665.526 31.3231 665.526 28.805V25.8783H637.451H609.378L608.805 28.1576C608.066 31.1019 609.565 32.2151 615.162 32.8776C623.088 33.8167 627.646 38.1391 629.336 46.3188C629.929 49.1891 630.161 66.1622 630.016 95.967L629.794 141.253L584.393 83.5944L538.992 25.9355L483.713 25.9069L428.433 25.8783V28.3056ZM507.699 33.0912C510.262 33.9647 512.951 35.9001 515.829 38.9428L520.128 43.4896L519.867 104.256C519.665 150.997 519.355 165.765 518.523 168.236C516.871 173.142 512.333 177.65 507.757 178.931C505.606 179.534 500.479 179.992 496.364 179.95C490.321 179.889 488.123 179.498 484.932 177.914C477.602 174.277 478.04 178.826 478.039 106.397C478.038 37.0713 477.987 37.8465 482.727 34.7407C488.484 30.9683 499.361 30.2503 507.699 33.0912ZM744.369 35.1266C765.95 42.6976 778.177 68.2406 778.177 105.75C778.177 130.445 773.074 149.731 762.973 163.211C753.512 175.836 736.995 182.497 721.634 179.878C694.266 175.215 678.137 147.62 678.137 105.46C678.137 66.8903 692.548 40.7883 717.653 33.8832C724.224 32.0755 737.424 32.6901 744.369 35.1266ZM191.019 52.8766C180.702 55.2988 169.669 64.6447 164.65 75.2138C161.862 81.0856 161.503 82.62 161.209 89.9295C160.946 96.4681 161.229 99.235 162.629 103.847C168.499 123.17 187.364 135.684 206.202 132.753C227.753 129.4 243.828 107.357 240.291 86.0091C237.833 71.179 226.959 58.4878 212.596 53.6888C206.984 51.8139 197.127 51.4432 191.019 52.8766ZM1276.95 91.247L1290.13 122.145L1263.56 122.367C1248.94 122.489 1236.86 122.469 1236.72 122.323C1236.34 121.95 1262.78 60.4022 1263.33 60.3728C1263.57 60.3602 1269.7 74.2528 1276.95 91.247ZM1371.31 144.081C1356.18 149.452 1352.46 171.141 1364.9 181.448C1377.1 191.555 1396.28 184.747 1399.52 169.166C1402.98 152.472 1387.2 138.439 1371.31 144.081ZM1385.88 148.547C1392.04 151.708 1395.3 157.263 1395.3 164.603C1395.3 175.391 1387.76 182.828 1377.58 182.091C1364.22 181.125 1357.45 166.182 1364.99 154.3C1369.26 147.561 1378.82 144.928 1385.88 148.547ZM1372.81 152.54C1370.95 152.942 1370.92 153.182 1370.92 165.082V177.214H1373.02C1375.03 177.214 1375.12 176.99 1375.12 172.17C1375.12 167.173 1375.15 167.125 1377.54 167.125C1380.35 167.125 1381.49 168.243 1382.28 171.754C1383.46 177.001 1383.6 177.214 1385.98 177.214H1388.32L1387.1 172.38C1386.43 169.721 1385.34 166.93 1384.67 166.178C1383.61 164.983 1383.62 164.747 1384.77 164.308C1386.55 163.625 1387.85 159.906 1387.21 157.35C1386.92 156.199 1385.84 154.7 1384.79 154.018C1382.78 152.699 1375.96 151.858 1372.81 152.54ZM1381.63 157.207C1383.52 158.773 1382.89 162.044 1380.53 162.942C1376.12 164.62 1375.12 164.1 1375.12 160.119C1375.12 158.115 1375.39 156.203 1375.73 155.87C1376.45 155.143 1380.16 155.982 1381.63 157.207Z" fill="#8F8E8C"/>
</svg>
