<svg width="1400" height="669" viewBox="0 0 1400 669" fill="none" xmlns="http://www.w3.org/2000/svg">
<path fill-rule="evenodd" clip-rule="evenodd" d="M682.802 2.18968C682.785 3.39546 680.151 31.9693 676.946 65.6903C673.74 99.4113 670.344 143.424 669.401 163.496L667.685 199.99L676.496 216.048C699.931 258.755 703.263 267.003 703.265 282.273C703.268 294.774 702.267 297.72 697.505 299.232C681.588 304.283 675.144 328.011 685.021 345.204C688.828 351.834 689.211 354.424 686.519 355.373C675.062 359.416 669.693 367.594 669.693 380.998C669.693 392.334 671.083 395.841 677.886 401.695C682.391 405.569 688.554 408.74 691.581 408.74C694.609 408.74 697.742 409.802 698.545 411.101C699.347 412.404 697.365 453.459 694.139 502.338C687.176 607.793 687.681 639.134 696.501 648.816C699.82 652.462 704.063 658.398 705.925 662.012C710.839 671.539 715.866 670.166 727.314 656.173C735.057 646.708 737.935 639.955 739.445 627.707C741.211 613.381 738.858 552.981 733.576 477.052L731.728 450.478L743.456 448.603C751.824 447.263 757.753 443.804 764.138 436.531C779.901 418.578 781.685 397.099 769.02 377.766C763.66 369.588 765.896 347.429 772.08 347.429C774.188 347.429 776.725 346.115 777.717 344.509C778.83 342.711 773.855 341.589 764.752 341.589C756.629 341.589 749.982 342.903 749.982 344.509C749.982 346.115 752.609 347.429 755.821 347.429C760.066 347.429 761.66 349.376 761.66 354.555C761.66 365.565 758.06 365.524 741.41 354.31L726.012 343.943L734.89 338.541C744.595 332.641 749.982 324.6 749.982 316.014C749.982 309.153 738.277 297.796 731.206 297.796C726.572 297.796 726.085 295.609 727.11 279.484C728.318 260.513 732.61 249.833 750.171 222.109L760.2 206.273L759.747 171.017C759.342 139.477 752.831 50.4618 748.25 13.865C747.296 6.2362 745.322 0.729892 743.868 1.62912C742.405 2.53127 741.223 34.5443 741.223 73.1615C741.223 117.813 740.169 143.059 738.303 143.059C736.697 143.059 735.343 140.758 735.293 137.95C734.519 94.7575 726.619 0 723.79 0C722.646 0 720.903 31.6919 719.916 70.4287C718.272 134.928 717.291 146.375 713.7 142.787C713.017 142.101 711.505 109.63 710.343 70.6244C709.181 31.6218 707.257 0.759088 706.065 2.0437C703.458 4.85524 697.429 71.471 697.429 97.4523C697.429 121.147 694.434 143.059 691.193 143.059C689.806 143.059 688.671 110.871 688.671 71.5294C688.671 25.7885 687.617 0 685.751 0C684.145 0 682.817 0.983894 682.802 2.18968ZM16.8897 165.437C0.773641 175.443 1.17654 171.7 0.312349 319.693C-0.4409 448.571 -0.160621 457.52 4.91651 466.906C14.4693 484.564 25.0674 488.035 66.2975 487.007L102.287 486.108L112.281 475.203L122.274 464.296V429.22V394.142H104.757H87.2396V424.797V455.453H62.4232H37.6069V322.495V189.535L61.6933 190.385L85.7798 191.232L86.6206 218.238L87.4585 245.244H104.868H122.274V212.837V180.429L112.348 170.503L102.421 160.576L63.4451 160.655C32.7838 160.716 22.8514 161.735 16.8897 165.437ZM164.316 170.503L154.39 180.429V321.926C154.39 462.655 154.425 463.467 160.719 471.469C170.596 484.029 182.829 487.568 216.337 487.562C251.664 487.559 263.949 483.04 271.896 467.131C276.536 457.85 277.003 444.644 277.006 323.053C277.011 205.202 276.439 187.991 272.238 179.136C264.665 163.178 256.315 160.576 212.635 160.576H174.243L164.316 170.503ZM964.278 170.503L954.351 180.429V321.141C954.351 496.537 950.471 485.235 1011.28 486.928C1051.48 488.05 1062.19 484.496 1071.71 466.906C1076.79 457.52 1077.07 448.571 1076.31 319.693C1075.45 171.081 1075.9 175.13 1059.25 165.294C1052.97 161.592 1042.97 160.576 1012.73 160.576H974.204L964.278 170.503ZM314.966 324.072V484.648H332.483H350.001V420.257V355.866L363.813 356.757L377.623 357.647L388.638 417.498C394.696 450.416 400.264 478.993 401.011 480.999C401.893 483.364 408.561 484.648 419.98 484.648C434.306 484.648 437.588 483.761 437.588 479.892C437.588 477.276 432.242 447.57 425.705 413.878C413.901 353.022 413.86 352.579 419.501 346.375C431.115 333.602 431.749 329.059 431.749 258.428C431.749 161.417 433.281 163.496 361.781 163.496H314.966V324.072ZM467.487 323.342L468.243 483.189L486.49 484.059L504.738 484.926V411.799V338.67H526.635H548.531L548.753 349.618C548.876 355.641 551.174 388.157 553.862 421.878L558.75 483.189L576.997 484.059C587.035 484.534 595.244 484.473 595.244 483.921C595.244 467.668 582.562 334.401 580.381 327.73C576.834 316.89 567.786 309.474 558.099 309.474C554.443 309.474 551.451 308.905 551.451 308.21C551.451 307.515 562.496 274.67 575.996 235.221L600.54 163.496H582.232H563.923L539.148 235.755C505.754 333.152 504.738 333.181 504.738 236.698V163.496H485.734H466.734L467.487 323.342ZM828.81 324.072V484.648H846.327H863.845V418.958V353.268H891.581H919.316V337.21V321.152H891.522H863.731L864.516 257.652L865.304 194.151L898.15 193.325L930.995 192.499V177.997V163.496H879.902H828.81V324.072ZM1112.71 323.342L1113.47 483.189L1131.72 484.059L1149.96 484.926V420.397V355.866L1163.67 356.757L1177.37 357.647L1188.4 417.361C1194.46 450.203 1200.08 478.78 1200.88 480.862C1201.85 483.384 1208.2 484.648 1219.94 484.648C1234.76 484.648 1237.55 483.84 1237.56 479.539C1237.56 476.728 1232.17 447.529 1225.58 414.649C1216.46 369.136 1214.37 353.808 1216.86 350.418C1232.31 329.333 1231.69 333.14 1231.7 258.966C1231.72 161.067 1233.53 163.496 1160.26 163.496H1111.96L1112.71 323.342ZM1267.45 323.342L1268.2 483.189L1286.45 484.059L1304.7 484.926V411.671V338.413L1325.87 339.271L1347.03 340.13L1349.29 366.406C1350.53 380.858 1353.16 413.046 1355.13 437.935L1358.71 483.189L1377.19 484.064L1395.66 484.937L1393.96 469.467C1393.03 460.956 1390.23 427.717 1387.76 395.601C1385.28 363.486 1381.93 333.047 1380.32 327.961C1377.13 317.859 1366.71 309.474 1357.35 309.474C1354.09 309.474 1351.46 308.487 1351.51 307.285C1351.57 306.082 1362.5 273.237 1375.81 234.295L1400 163.496H1381.86H1363.73L1353.14 193.421C1347.32 209.882 1336.22 242.397 1328.48 265.681C1318.58 295.463 1312.97 308.295 1309.55 308.957C1305.13 309.819 1304.7 303.387 1304.7 236.698V163.496H1285.7H1266.7L1267.45 323.342ZM239.057 322.612V455.453H214.241H189.424V324.56C189.424 252.566 190.3 192.788 191.372 191.719C192.44 190.648 203.608 189.772 216.188 189.772H239.057V322.612ZM1039.02 322.612V455.453H1014.2H989.386V324.56C989.386 252.566 990.262 192.788 991.333 191.719C992.402 190.648 1003.57 189.772 1016.15 189.772H1039.02V322.612ZM393.794 258.382V324.072H371.897H350.001V258.382V192.691H371.897H393.794V258.382ZM1193.76 258.382V324.072H1171.86H1149.96V258.382V192.691H1171.86H1193.76V258.382ZM726.692 306.677C731.349 315.378 729.066 333.102 722.797 336.915C711.446 343.82 696.88 314.11 706.772 304.219C712.249 298.742 723.165 300.091 726.692 306.677ZM743.412 393.409C744.91 397.902 728.911 405.82 718.333 405.82C705.044 405.82 697.091 397.508 695.316 381.754C692.63 357.93 694.562 357.37 719.761 374.642C732.16 383.141 742.805 391.587 743.412 393.409ZM755.821 420.327C755.821 426.085 753.774 433.716 751.275 437.284C746.72 443.789 735.384 446.335 735.384 440.855C735.384 439.249 736.557 437.935 737.991 437.935C744.335 437.935 743.629 428.42 736.814 422.108C727.41 413.39 727.711 411.204 739.1 405.397C747.693 401.017 748.843 401 752.171 405.224C754.18 407.77 755.821 414.567 755.821 420.327Z" fill="#8F8E8C"/>
</svg>
