<svg width="1400" height="335" viewBox="0 0 1400 335" fill="none" xmlns="http://www.w3.org/2000/svg">
<path fill-rule="evenodd" clip-rule="evenodd" d="M993.092 1.19987C981.018 3.35681 971.302 6.60203 960.045 12.2375C903.886 40.3511 879.181 106.679 903.209 164.832C904.941 169.027 906.36 172.628 906.36 172.834C906.36 173.04 889.169 173.208 868.157 173.208H829.953V104.545V35.8823H822.726H815.498V111.773V187.663L865.834 187.723L916.169 187.782L921.332 194.554C930.605 206.718 945.662 218.398 962.405 226.412C987.987 238.656 1018.19 241.272 1045.42 233.601C1066.75 227.593 1089.99 212.703 1104.07 196.02L1110.97 187.844L1151.93 187.406C1186.43 187.038 1193.85 186.692 1199 185.217C1217.09 180.039 1228.56 167.042 1230.15 149.937C1231.61 134.222 1225.99 121.206 1213.55 111.517L1208.88 107.879L1213.11 103.296C1215.43 100.774 1218.57 96.0743 1220.08 92.8518C1222.53 87.62 1222.83 85.7749 1222.83 75.6345C1222.83 65.1316 1222.6 63.8286 1219.81 58.3232C1216.05 50.8993 1207.64 42.8291 1199.86 39.1823L1193.92 36.3986L1146.53 36.0919L1099.14 35.7842L1092.84 30.0702C1079.53 18.0083 1060.52 7.77601 1042.94 3.21639C1030.43 -0.0288276 1005.59 -1.03347 993.092 1.19987ZM1039.56 15.2102C1050.79 18.1219 1067.8 26.1673 1076.73 32.7848C1118.32 63.619 1131.84 120.06 1108.77 166.496C1076.58 231.266 989.902 245.715 938.478 194.885C923.862 180.438 914.26 163.561 909.177 143.386C907.336 136.079 906.945 131.627 906.995 118.484C907.046 104.638 907.415 101.128 909.733 92.4584C920.656 51.6097 951.842 22.3635 993.737 13.6779C1004.36 11.4745 1028.23 12.2727 1039.56 15.2102ZM691.079 34.3779C660.722 41.1699 639.758 59.4032 630.486 87.081C628.365 93.4155 628.098 96.1393 628.125 111.257C628.153 126.983 628.369 128.928 630.938 136.553C643.289 173.211 679.122 194.261 721.602 189.813C748.037 187.045 767.418 176.132 775.232 159.614L778.325 153.074L778.326 129.584L778.327 106.094H744.254H710.181V113.322V120.549H737.026H763.872V135.835C763.872 150.985 763.845 151.164 760.828 155.92C747.871 176.352 703.58 182.645 675.251 168.079C637.918 148.884 629.88 96.9055 659.587 66.7733C670.582 55.6211 684.175 49.4683 702.828 47.1998C724.421 44.5751 745.651 51.2628 760.851 65.4806L765.897 70.2003L770.553 65.1729L775.211 60.1466L767.832 53.1162C759.19 44.8859 744.3 37.0759 732.176 34.4151C723.03 32.4089 699.976 32.3872 691.079 34.3779ZM1270.06 111.515L1270.32 187.147H1334.86H1399.39L1399.7 180.177L1400 173.208H1342.13H1284.26V144.813V116.419H1314.21H1344.15V109.191V101.964H1314.21H1284.26V75.6345V49.3051H1339.5H1394.74V42.5937V35.8823H1332.27H1269.79L1270.06 111.515ZM6.73617 59.8472C10.4409 71.3691 21.4393 105.423 31.177 135.521L48.8817 190.245H56.0732H63.2658L79.7996 129.584C88.893 96.2209 96.5688 68.9293 96.8558 68.9355C97.1429 68.9427 104.326 94.1497 112.818 124.95C121.309 155.751 128.894 183.158 129.674 185.856L131.09 190.761H138.196H145.301L147.991 182.242C153.111 166.028 192.999 41.9525 193.568 40.4688C194.036 39.2525 192.709 38.9799 186.33 38.9799H178.52L175.395 49.047C173.676 54.5834 164.675 83.1874 155.394 112.611L138.519 166.108L122.77 107.965C114.107 75.9855 106.327 47.3826 105.482 44.4006L103.943 38.9799H96.829H89.7139L88.2921 43.8844C87.5094 46.5813 79.9679 74.9127 71.5332 106.842C63.0985 138.771 55.9596 164.658 55.6685 164.366C55.3783 164.076 46.2322 135.862 35.3443 101.667L15.5477 39.4962L7.77387 39.1967L0 38.8963L6.73617 59.8472ZM222.83 114.918V190.855L229.799 190.55L236.769 190.245L237.033 114.612L237.299 38.9799H230.064H222.83V114.918ZM286.846 114.918V190.855L293.816 190.55L300.785 190.245L301.302 125.628L301.818 61.0119L354.319 125.932L406.819 190.851L413.689 190.547L420.558 190.245L420.822 114.612L421.088 38.9799H413.861H406.634L406.368 104.186L406.103 169.393L353.62 104.186L301.136 38.9799H293.991H286.846V114.918ZM468.57 114.87V190.761H533.103H597.636V183.533V176.305H540.331H483.026V147.911V119.517H512.969H542.912V112.289V105.061H512.969H483.026V79.2483V53.4352H537.749H592.473V46.2076V38.9799H530.522H468.57V114.87ZM1192.65 51.3764C1198.08 53.3103 1204.68 59.2432 1206.94 64.2189C1209.34 69.5013 1209.52 80.8952 1207.29 86.2509C1204.92 91.9421 1198.88 97.5673 1192.63 99.9049C1187.64 101.774 1184.57 101.964 1159.39 101.964H1131.66L1129.88 93.9617C1126.82 80.1559 1121.22 66.4946 1113.33 53.6159L1110.59 49.1502L1149.67 49.5684C1178.9 49.8813 1189.74 50.3376 1192.65 51.3764ZM1197.27 118.944C1203.91 121.295 1210.27 126.584 1213.3 132.276C1216.58 138.444 1216.56 152.248 1213.27 158.448C1210.38 163.874 1205.37 167.933 1198.33 170.541C1193.4 172.368 1189.45 172.597 1156.49 172.964C1136.47 173.187 1120.09 173.114 1120.09 172.802C1120.09 172.489 1121.25 169.614 1122.67 166.411C1128.28 153.715 1132.46 134.692 1132.48 121.769L1132.48 116.278L1162.17 116.651C1187.82 116.976 1192.59 117.286 1197.27 118.944ZM479.14 267.606C476.734 270.686 474.765 273.474 474.765 273.801C474.765 274.128 476.741 274.38 479.154 274.362C482.56 274.336 484.75 273.455 488.937 270.425L494.332 266.521L489.683 264.263C487.127 263.021 484.693 262.005 484.275 262.005C483.857 262.005 481.546 264.525 479.14 267.606ZM664.994 267.606C662.589 270.686 660.62 273.474 660.62 273.801C660.62 274.128 662.595 274.38 665.008 274.362C668.414 274.336 670.604 273.455 674.791 270.425L680.186 266.521L675.537 264.263C672.981 263.021 670.547 262.005 670.129 262.005C669.711 262.005 667.4 264.525 664.994 267.606ZM331.925 280.848C331.148 282.695 327.241 291.871 323.243 301.241C319.244 310.611 314.551 321.645 312.813 325.763L309.654 333.249H316.067H322.479L324.894 327.021L327.309 320.793L338.766 321.084L350.224 321.375L352.499 327.054L354.776 332.733L361.214 333.043C366.991 333.322 367.6 333.163 367.147 331.495C366.87 330.471 361.636 317.903 355.516 303.564L344.391 277.493H338.864C333.607 277.493 333.268 277.657 331.925 280.848ZM938.516 279.3C937.794 280.663 919.339 323.759 915.944 332.011C915.517 333.049 916.877 333.283 921.916 333.043L928.441 332.733L930.717 327.054L932.994 321.375L944.308 321.085L955.623 320.794L958.324 327.022L961.025 333.249H967.359C972.961 333.249 973.618 333.039 973.022 331.442C972.652 330.449 967.385 317.903 961.318 303.564L950.287 277.493H944.88C940.784 277.493 939.242 277.93 938.516 279.3ZM1017.31 279.434C1009.12 283.156 1005.3 290.843 1007.54 299.132C1009.19 305.284 1013.77 308.258 1027.36 312.024C1032.99 313.586 1036.46 315.797 1036.46 317.834C1036.46 318.362 1035.53 319.723 1034.39 320.859C1031.27 323.98 1024.53 323.598 1017.5 319.903L1011.76 316.881L1008.57 320.516C1006.81 322.515 1005.55 324.687 1005.77 325.344C1006.45 327.437 1012.91 331.185 1018.77 332.887C1034.28 337.398 1047.82 330.255 1047.82 317.557C1047.82 307.829 1044.14 304.35 1029.08 299.805C1019 296.763 1016.72 294.276 1020.53 290.473C1022.87 288.131 1028.94 288.495 1035.06 291.345L1040.38 293.82L1043.59 289.347L1046.8 284.874L1043.62 282.609C1036.47 277.515 1024.67 276.092 1017.31 279.434ZM266.196 305.887V333.249H285.814H305.432V327.57V321.891H292.009H278.586V300.208V278.525H272.391H266.196V305.887ZM395.261 279.039C395.261 279.322 400.187 291.867 406.208 306.918L417.155 334.281H422.536H427.919L438.549 307.694C444.395 293.07 449.41 280.526 449.692 279.816C450.072 278.863 448.453 278.525 443.509 278.525C437.164 278.525 436.754 278.674 435.693 281.365C435.077 282.926 431.994 291.142 428.842 299.621C425.69 308.099 422.94 315.208 422.73 315.416C422.522 315.625 420.244 310.081 417.67 303.097C415.095 296.113 411.986 287.728 410.762 284.462L408.535 278.525H401.898C398.248 278.525 395.261 278.757 395.261 279.039ZM458.245 305.887V333.249H479.466H500.687L500.374 327.828L500.062 322.407L485.349 322.121L470.635 321.834V316.701V311.566H483.542H496.448V305.887V300.208H483.542H470.635V295.046V289.883H485.091H499.546V284.204V278.525H478.896H458.245V305.887ZM510.904 305.887V333.249H517.099H523.294V324.414V315.577L527.682 315.895C531.924 316.202 532.259 316.495 537.749 324.696L543.428 333.178L550.398 333.214C554.23 333.232 557.349 332.901 557.325 332.475C557.302 332.048 554.558 327.785 551.227 323L545.17 314.3L549.283 311.32C554.583 307.48 556.674 302.501 556.132 295.012C555.617 287.887 552.532 283.174 546.628 280.492C543.102 278.892 539.768 278.567 526.65 278.548L510.904 278.525V305.887ZM567.692 305.887V333.249H573.888H580.083V305.887V278.525H573.888H567.692V305.887ZM589.375 284.204V289.883H597.636H605.896V311.566V333.249H612.091H618.286V311.566V289.883H626.546H634.806V284.204V278.525H612.091H589.375V284.204ZM644.099 305.887V333.249H665.32H686.541L686.228 327.828L685.916 322.407L671.203 322.121L656.489 321.834V316.701V311.566H669.396H682.303V305.887V300.208H669.396H656.489V295.046V289.883H670.945H685.4V284.204V278.525H664.75H644.099V305.887ZM720.506 305.887V333.249L733.671 333.243C740.912 333.24 748.544 332.763 750.632 332.182C757.126 330.38 763.941 324.962 767.313 318.924C769.961 314.181 770.411 312.286 770.411 305.887C770.411 299.489 769.961 297.593 767.313 292.85C763.941 286.812 757.126 281.395 750.632 279.592C748.544 279.012 740.912 278.535 733.671 278.531L720.506 278.525V305.887ZM780.398 296.853C780.405 317.288 781.136 321.347 785.764 326.618C789.601 330.989 792.836 332.756 798.816 333.75C810.624 335.713 820.924 331.333 825.34 322.468C827.778 317.577 827.888 316.513 827.888 297.941V278.525H822.295H816.701L816.354 296.336C816.072 310.804 815.672 314.761 814.222 317.417C810.873 323.548 800.788 324.531 795.787 319.214C793.371 316.645 793.289 316.013 792.977 297.546L792.654 278.525H786.523H780.392L780.398 296.853ZM864.027 305.887V333.249H870.222H876.417V324.414V315.577L880.805 315.895C885.047 316.202 885.382 316.495 890.872 324.696L896.551 333.178L903.521 333.214C907.353 333.232 910.472 332.901 910.448 332.475C910.425 332.048 907.681 327.785 904.35 323L898.293 314.3L902.405 311.32C907.705 307.48 909.797 302.501 909.255 295.012C908.74 287.887 905.655 283.174 899.751 280.492C896.225 278.892 892.891 278.567 879.773 278.548L864.027 278.525V305.887ZM982.767 305.887V333.249H988.962H995.157V305.887V278.525H988.962H982.767V305.887ZM1059.17 305.887V333.249H1065.37H1071.56V305.887V278.525H1065.37H1059.17V305.887ZM1084.99 305.887V333.249H1090.67H1096.34V316.729C1096.34 307.642 1096.69 300.225 1097.12 300.244C1097.54 300.264 1103.48 307.582 1110.31 316.507L1122.73 332.733L1128.12 333.045L1133.52 333.357V305.941V278.525H1127.35H1121.18L1120.89 294.589L1120.61 310.654L1108.35 294.589L1096.08 278.525H1090.53H1084.99V305.887ZM541.879 291.948C544.105 294.173 544.559 298.164 542.934 301.2C541.531 303.819 536.473 305.371 529.335 305.371H523.294V297.627V289.883H531.554C538.438 289.883 540.158 290.227 541.879 291.948ZM750.554 292.227C752.484 293.515 754.875 296.188 755.868 298.164C759.6 305.592 757.242 315.08 750.554 319.547C747.702 321.453 745.628 321.891 739.455 321.891H731.864V305.887V289.883H739.455C745.628 289.883 747.702 290.321 750.554 292.227ZM895.002 291.948C897.227 294.173 897.682 298.164 896.057 301.2C894.654 303.819 889.596 305.371 882.458 305.371H876.417V297.627V289.883H884.677C891.561 289.883 893.281 290.227 895.002 291.948ZM342.066 301.241C343.588 304.932 345.077 308.533 345.377 309.243C345.781 310.2 344.159 310.533 339.099 310.533C335.347 310.533 332.277 310.126 332.277 309.627C332.277 309.128 332.974 307.037 333.826 304.981C334.678 302.924 336.078 299.543 336.937 297.468C337.796 295.394 338.679 293.884 338.899 294.112C339.119 294.341 340.544 297.549 342.066 301.241ZM947.956 301.499C949.517 305.617 950.786 309.333 950.776 309.759C950.745 311.118 938.368 310.663 938.368 309.303C938.368 307.651 943.905 294.042 944.583 294.025C944.877 294.019 946.396 297.381 947.956 301.499Z" fill="#8F8E8C"/>
</svg>
